# xmcd
#
# Track frame offsets:
#	150
#	36886
#	66620
#	100511
#	145098
#
# Disc length: 2725 seconds
#
# Revision: 0
# Processed by: cddbd v1.5.2PL0 Copyright (c) Steve Scherf et al.
# Submitted via: audiograbber 1.83.01
#
DISCID=410aa305
DTITLE=Grateful Dead - 94-07-31 The Palace, Auburn Hills MI
DYEAR=1900
DGENRE=
TTITLE0=Samson and Delilah
TTITLE1=Way To Go Home
TTITLE2=New Speedway Boogie
TTITLE3=Truckin'
TTITLE4=He's Gone
EXTD=
EXTT0=
EXTT1=
EXTT2=
EXTT3=
EXTT4=
PLAYORDER=
